<svg id="Laag_1" data-name="Laag 1" xmlns="http://www.w3.org/2000/svg" viewBox="0 0 346 316"><defs><style>.cls-1{fill:#c779d0;}.cls-2{fill:#4bc0c8;}.cls-3{fill:#fefefe;}</style></defs><title>chat</title><path class="cls-1" d="M262.24,205.34c.11,5.62.2,11.24,0,16.85a29.13,29.13,0,0,1-25.67,27.86c-5,.61-10.06.25-15.1.28q-42.67.22-85.34.35c-4.79,0-4.77,0-8,3.56l-50.79,56L72.11,316c-.47-.55-.27-1.15-.27-1.67q0-30.75,0-61.5c0-2.06,0-2.06-2-2.06q-19.62,0-39.25,0a29.34,29.34,0,0,1-18.46-5.92C4.51,239,.42,231.21.41,221.6Q.29,158.28.38,95A29.32,29.32,0,0,1,26,66.14a75.8,75.8,0,0,1,9.29-.23q24.21-.09,48.42-.1c.72,0,1.44.1,2.17.1,18.24-.06,36.48-.09,54.71-.22,31.26-.22,62.51-.06,93.77-.08a20.87,20.87,0,0,1,3.87.45,28.61,28.61,0,0,1,17.6,10.58,26.72,26.72,0,0,1,6.26,16.92q.11,54.88,0,109.75C262.15,204,262.21,204.66,262.24,205.34ZM196.9,142.93a17.89,17.89,0,0,0-.19,35.78,17.89,17.89,0,1,0,.19-35.78Zm-65.55,0a17.89,17.89,0,0,0,0,35.78,17.89,17.89,0,1,0,0-35.78ZM48,160.64a17.87,17.87,0,1,0,17.92-17.71A17.86,17.86,0,0,0,48,160.64Z"/><path class="cls-2" d="M262.24,205.34c0-.68-.09-1.35-.09-2q0-54.87,0-109.75a26.72,26.72,0,0,0-6.26-16.92,28.61,28.61,0,0,0-17.6-10.58,20.87,20.87,0,0,0-3.87-.45c-31.26,0-62.51-.14-93.77.08-18.23.13-36.47.16-54.71.22-.73,0-1.45-.07-2.17-.1,0-.58.08-1.16.08-1.74,0-11.92,0-23.85,0-35.77C83.89,14.21,95.24,1.66,109.3.18c6.66-.7,13.36-.24,20-.26,15.8,0,31.6-.07,47.4.05,46.2.34,92.39.12,138.59.26,13.36,0,24,7.33,28.59,19.61a25.91,25.91,0,0,1,1.68,9.09q0,63.83,0,127.67c0,13.29-10.49,25.59-23.56,28-5.11.94-10.25.43-15.37.55-2.68.07-2.68,0-2.68,2.67v62.93c-1.79-1.94-3.36-3.6-4.89-5.29q-7.71-8.52-15.41-17-9.79-10.83-19.64-21.62C263.55,206.24,263.24,205.33,262.24,205.34Z"/><path class="cls-3" d="M196.9,142.93a17.89,17.89,0,1,1-18,17.69A17.86,17.86,0,0,1,196.9,142.93Z"/><path class="cls-3" d="M131.35,142.93a17.89,17.89,0,1,1-17.86,17.76A17.88,17.88,0,0,1,131.35,142.93Z"/><path class="cls-3" d="M48,160.64a17.87,17.87,0,0,1,35.73.16A17.87,17.87,0,1,1,48,160.64Z"/></svg>