<svg id="Laag_1" data-name="Laag 1" xmlns="http://www.w3.org/2000/svg" viewBox="0 0 540 529"><title>female</title><path d="M257,9h26c5.09.73,10.19,1.38,15.26,2.21,93,15.17,158.62,101.1,146.24,194.71-9.57,72.35-50.77,120.91-119.31,146-7.44,2.72-15.28,4.32-22.85,6.42V393c15.83,0,31.3,0,46.77,0,18.48,0,32.82,13.9,32.88,31.78.07,18.05-14,32.08-32.42,32.21-14.16.09-28.32,0-42.48,0-1.6,0-3.2.15-5.1.24,0,11.06.11,21.71,0,32.35a31.63,31.63,0,0,1-21.46,29.58c-1.52.54-3,1.2-4.51,1.81H264c-3.75-1.68-7.77-2.93-11.19-5.12-9.68-6.2-14.61-15.3-14.78-26.79-.15-10.59,0-21.18,0-32.09-16.12,0-31.59,0-47.06,0-18.58-.06-32.86-13.84-32.95-31.71-.1-18.2,14.15-32.22,32.89-32.29,14-.05,28,0,42,0,1.61,0,3.21-.13,4.85-.21V358.1c-1.55-.39-2.83-.76-4.13-1-77.71-16.16-135.5-83.73-139.44-163a175.83,175.83,0,0,1,131-179.12C235.6,12.2,246.39,10.94,257,9Zm12.66,288c61.2.34,112-49.68,112.34-110.54.31-62.11-49.09-113.1-109.91-113.45C209.27,72.65,158.35,121.89,158,183.29,157.68,246.35,207.07,296.64,269.66,297Z"/></svg>