<svg id="Laag_1" data-name="Laag 1" xmlns="http://www.w3.org/2000/svg" viewBox="0 0 176 153"><defs><style>.cls-1{fill:#ef5542;}</style></defs><title>hearth</title><path class="cls-1" d="M7.19,21.44C16,8.9,28,1.59,43.28,0A49.71,49.71,0,0,1,71.45,7.74l.3.19A108.61,108.61,0,0,1,84.29,19.75c2,2.23,4.45,3.21,6.94.4l10.07-9.74A56.51,56.51,0,0,1,124.24.24l4-.24,8.68.28.2.2.24-.15A63.33,63.33,0,0,1,156.15,7.9a65.51,65.51,0,0,1,13.64,14.37,63.08,63.08,0,0,1,6.4,18.86c.06,1,.11,2,.16,3l0,5-.21,3A68.18,68.18,0,0,1,169.76,70l-.65,1.12L156.77,84.93l-.76.76L142.83,98.93l-.79.8-13.16,13.2-.82.82-13,13-2.13,2.16A115.37,115.37,0,0,0,101.1,140.8L99,142.93c-3,2.84-6,5.59-8.8,8.54-1.51,1.58-2.48,1.5-3.94,0-2.48-2.61-5.16-5-7.75-7.5l-2.14-2.13a118.46,118.46,0,0,0-11.83-11.88c-.72-.71-1.43-1.43-2.14-2.14a116.19,116.19,0,0,0-11.83-11.86l-2.14-2.16-12.93-13,.07.07L21.41,86.62,20.75,86C11.5,76.9,3.06,67.34.7,54,.55,53,.39,52.05.24,51.1c0-3,0-6,0-9l.13-2A64.66,64.66,0,0,1,7.19,21.44Zm25.26-2.2c4.25-1.37,8.42-3,13-3,2.92,0,5-1.28,4.74-4.41C50,8.94,47.8,8,45.16,8.16c-6,.34-11.82,1.41-16.93,4.89A30.25,30.25,0,0,0,14.28,26.14c-7.5,10.93-8,27.67-1.32,38.3,1.42,2.25,3.19,3.64,5.74,2.28s2.69-3.58,1.4-6c-5.54-10.25-4.7-20.41.47-30.5A44,44,0,0,1,32.45,19.24Z"/></svg>