<svg id="Laag_1" data-name="Laag 1" xmlns="http://www.w3.org/2000/svg" viewBox="0 0 582.67 582.65"><defs><style>.cls-1{fill:#3fa2a5;}.cls-2{fill:#c779d0;}.cls-3{fill:#ea9a59;}.cls-4{fill:#feac5e;}.cls-5{fill:#7b4d82;}.cls-6{fill:#4bc0c8;}</style></defs><title>logo</title><polygon class="cls-1" points="291.32 437 291.32 582.64 291.31 582.64 218.49 509.82 291.31 437 291.32 437"/><polygon class="cls-2" points="291.31 436.99 218.49 509.81 145.67 436.99 291.31 436.99"/><polygon class="cls-3" points="218.49 364.15 145.66 436.97 145.66 291.32 218.49 364.15"/><polygon class="cls-2" points="145.66 291.31 145.66 291.32 72.83 364.14 0 291.31 145.66 291.31"/><polygon class="cls-3" points="72.83 218.49 0 291.31 0 145.66 72.83 218.49"/><polygon class="cls-4" points="145.66 145.66 72.83 218.49 0 145.66 145.66 145.66"/><polygon class="cls-5" points="291.32 145.66 145.66 145.66 218.49 72.83 291.32 145.66"/><polygon class="cls-2" points="218.49 72.83 145.66 145.66 145.66 -0.01 218.49 72.83"/><polygon class="cls-6" points="145.66 145.66 0 145.66 72.83 72.83 145.66 145.66"/><polygon class="cls-5" points="145.66 291.31 0 291.31 72.83 218.49 145.66 291.31"/><polygon class="cls-5" points="291.31 436.99 145.67 436.99 218.49 364.15 291.31 436.99"/><polygon class="cls-4" points="145.66 291.32 145.66 436.98 72.83 364.14 145.66 291.32"/><polygon class="cls-6" points="145.66 -0.01 145.66 145.66 72.83 72.83 145.66 -0.01"/><polygon class="cls-1" points="145.66 145.66 145.66 291.31 72.83 218.49 145.66 145.66"/><polygon class="cls-6" points="218.49 218.49 145.66 291.31 145.66 145.66 218.49 218.49"/><polygon class="cls-2" points="291.32 145.66 218.49 218.49 145.66 145.66 291.32 145.66"/><polygon class="cls-5" points="291.32 291.31 145.66 291.31 218.49 218.49 291.32 291.31"/><polygon class="cls-6" points="291.32 145.66 291.32 291.31 218.49 218.49 291.32 145.66"/><polygon class="cls-4" points="291.33 291.31 291.33 436.98 291.32 436.98 218.5 364.14 291.32 291.32 291.33 291.31"/><polygon class="cls-2" points="291.31 291.32 218.5 364.14 218.49 364.14 145.66 291.32 291.31 291.32"/><polygon class="cls-6" points="291.35 437 291.35 582.65 291.36 582.65 364.18 509.83 291.36 437 291.35 437"/><polygon class="cls-1" points="291.36 436.99 364.18 509.81 437 436.99 291.36 436.99"/><polygon class="cls-4" points="364.18 364.16 437.01 436.98 437.01 291.33 364.18 364.16"/><polygon class="cls-3" points="437.01 291.32 437.01 291.33 509.84 364.15 582.67 291.32 437.01 291.32"/><polygon class="cls-4" points="509.84 218.49 582.67 291.32 582.67 145.66 509.84 218.49"/><polygon class="cls-6" points="437.01 145.66 509.84 218.49 582.67 145.66 437.01 145.66"/><polygon class="cls-6" points="291.35 145.66 437.01 145.66 364.18 72.83 291.35 145.66"/><polygon class="cls-4" points="364.18 72.83 437.01 145.66 437.01 0 364.18 72.83"/><polygon class="cls-3" points="437.01 145.66 582.67 145.66 509.84 72.83 437.01 145.66"/><polygon class="cls-1" points="437.01 291.32 582.67 291.32 509.84 218.49 437.01 291.32"/><polygon class="cls-6" points="291.36 436.99 437 436.99 364.18 364.16 291.36 436.99"/><polygon class="cls-5" points="437.01 291.33 437.01 436.98 509.84 364.15 437.01 291.33"/><polygon class="cls-1" points="437.01 0 437.01 145.66 509.84 72.83 437.01 0"/><polygon class="cls-5" points="437.01 145.66 437.01 291.32 509.84 218.49 437.01 145.66"/><polygon class="cls-1" points="364.18 218.49 437.01 291.32 437.01 145.66 364.18 218.49"/><polygon class="cls-3" points="291.35 145.66 364.18 218.49 437.01 145.66 291.35 145.66"/><polygon class="cls-2" points="291.35 291.32 437.01 291.32 364.18 218.49 291.35 291.32"/><polygon class="cls-1" points="291.35 145.66 291.35 291.32 364.18 218.49 291.35 145.66"/><polygon class="cls-3" points="291.34 291.32 291.34 436.98 291.35 436.98 364.17 364.15 291.35 291.33 291.34 291.32"/><polygon class="cls-2" points="291.36 291.33 364.18 364.15 364.19 364.15 437 291.33 291.36 291.33"/></svg>