<svg id="Laag_1" data-name="Laag 1" xmlns="http://www.w3.org/2000/svg" viewBox="0 0 540 529"><path class="cls-1" d="M.1,255.5Q.1,129.8,0,4.09C0,.67.67,0,4.09,0Q256,.17,507.91,0c3.42,0,4.09.67,4.09,4.09q-.17,251.91,0,503.82c0,3.42-.67,4.09-4.09,4.09Q256,511.84,4.09,512C.67,512,0,511.33,0,507.91Q.18,381.7.1,255.5ZM452,87.66c1.81,1.55,1.21,3.69,1.23,5.59.09,7.32-.26,14.65.1,22,.45,9.28-.51,18.58.71,27.83-.7,13.57,6.45,22.9,19.21,24.54a51,51,0,0,0,18.3-1.07c11.61-2.77,18.4-15,16.61-23.38.15-1.81.46-3.62.44-5.43-.15-12.65-.45-25.3-.53-37.95-.15-24.64-.16-49.29-.3-73.94-.08-13.2-9.33-23.6-21.42-23.63q-62.2-.18-124.41,0c-11.23,0-20.56,9.42-21,20.69-.17,4.33-.09,8.66-.09,13,0,14.77,9.24,24.09,23.92,24.11,13.83,0,27.65,0,41.47,0,1.4,0,2.91-.43,4.55.7-2.09,2.39-4,4.65-6,6.81q-42.6,45.6-85.17,91.25c-2.84,3.06-4.64,3.7-8.43,1-45.2-32.41-95.63-44.49-149.94-33.44C83.78,142,33.65,189.4,10.45,264.83A158,158,0,0,0,4.12,328c-.42,7,.79,13.83,2,20.68,6.21,35.92,20.87,68,45.24,95.08,45.5,50.65,102.69,72.59,170,64.67,57.81-6.79,103.33-35.8,136.44-83.68,19.83-28.68,30.43-60.8,32.77-95.54,1-15.46.56-30.93-2.76-46.17-.47-2.93-.79-5.89-1.43-8.78a190.19,190.19,0,0,0-32.8-72.32c-1.46-2-2.63-3.81-.69-6.1.84-.78,1.76-1.5,2.53-2.34q31.19-34,62.34-68.12C429.23,112.83,440.58,100.23,452,87.66Z"/>
    <path d="M525.57,146.69c-.15-12.65-.45-25.3-.53-37.95-.15-24.64-.16-49.29-.3-73.94-.08-13.2-9.33-23.6-21.42-23.63q-62.2-.18-124.41,0c-11.23,0-20.56,9.42-21,20.69-.17,4.33-.09,8.66-.09,13,0,14.77,9.24,24.09,23.92,24.11,13.83,0,27.65,0,41.47,0,1.4,0,2.91-.43,4.55.7-2.09,2.39-4,4.65-6,6.81q-42.6,45.6-85.17,91.25c-2.84,3.06-4.64,3.7-8.43,1-45.2-32.41-95.63-44.49-149.94-33.44C100.78,151,50.65,198.4,27.45,273.83A158,158,0,0,0,21.12,337c-.42,7,.79,13.83,2,20.68,6.21,35.92,20.87,68,45.24,95.08,45.5,50.65,102.69,72.59,170,64.67,57.81-6.79,103.33-35.8,136.44-83.68,19.83-28.68,30.43-60.8,32.77-95.54,1-15.46.56-30.93-2.76-46.17-.47-2.93-.79-5.89-1.43-8.78a190.19,190.19,0,0,0-32.8-72.32c-1.46-2-2.63-3.81-.69-6.1.84-.78,1.76-1.5,2.53-2.34q31.19-34,62.34-68.12c11.44-12.52,22.79-25.12,34.18-37.69,1.81,1.55,1.21,3.69,1.23,5.59.09,7.32-.26,14.65.1,22,.45,9.28-.51,18.58.71,27.83-.7,13.57,6.45,22.9,19.21,24.54a51,51,0,0,0,18.3-1.07c11.61-2.77,18.4-15,16.61-23.38C525.28,150.31,525.59,148.5,525.57,146.69ZM235,449.72C169.18,460.83,105.36,417.62,91,352.3c-.25-1.13-.63-2.22-1-3.34-2.83-14.89-2.21-29.85-1-44.83,2.11-2.59,2-5.9,2.69-8.89a126.07,126.07,0,0,1,112-95.49c64.92-5.33,123.18,39.46,134.39,103.3A126.11,126.11,0,0,1,235,449.72Z"/></svg>