<svg id="Laag_1" data-name="Laag 1" xmlns="http://www.w3.org/2000/svg" viewBox="0 0 409 512"><title>unisex</title><path d="M387,0l3.63,1.48c8.82,3.6,14.38,9.9,14.45,19.63.21,27.16.29,54.33,0,81.49a23.66,23.66,0,0,1-22.44,23.22A24.13,24.13,0,0,1,357,105.44c-.81-4.9-1.21-9.87-1.71-14L317,129.85c4.55,12.32,10.51,25.06,14,38.46,14.48,55.74-14.54,117.56-66.47,142.49-8.06,3.87-16.75,6.39-25.06,9.74a12.12,12.12,0,0,0-5.37,3.81c-19.19,28.07-45.22,46.15-78.37,53.77-3.82.88-5,2.42-4.9,6.32.3,10,.38,20,0,30-.19,4.88,1.64,5.9,6,5.7,6.82-.3,13.67-.17,20.5-.05a22.92,22.92,0,0,1-.05,45.84c-7,.11-14,.23-21-.05-4-.16-5.72.92-5.44,5.23.35,5.31.1,10.67.08,16,0,12.28-5.58,19.91-17.27,23.89a8.46,8.46,0,0,0-1.63,1h-8a9.52,9.52,0,0,0-1.67-1c-11.71-3.84-17.25-11.4-17.34-23.78,0-5.67-.15-11.34,0-17,.11-3.24-1-4.4-4.32-4.33q-11.24.27-22.5,0a22.92,22.92,0,0,1,.19-45.81c7.17-.13,14.34-.22,21.5,0,3.87.14,5.28-1,5.17-5-.27-9.66-.45-19.35.06-29,.28-5.47-1.63-7.21-6.81-8.38C31.5,362.65-12.34,293.07,3.79,226.52c11.93-49.24,43-81.09,91.67-95.67a12.16,12.16,0,0,0,6.1-4.45c38.75-56.72,112.35-73,171.83-37.85,2.95,1.75,4.71,1.79,7.24-.72,11-10.92,22.22-21.6,33.34-32.4a42.31,42.31,0,0,0,2.87-3.57c-6.91,0-12.87,0-18.84,0a25.9,25.9,0,0,1-25.67-22.14c-1.91-12.47,6-24.66,18.49-28.47C291.9.9,292.94.42,294,0ZM163.59,131c59.6,22.62,90.42,64.94,92.18,128.82,21.45-17.34,32.27-39.25,30.66-66-2-34.09-19.67-58.19-51.5-70.66C210.33,113.48,186.52,116.76,163.59,131Zm8.25,189.31c-59.91-22.64-90.64-64.91-92.47-128.86C58.9,208.21,48.15,229.07,48.86,255c.9,33,16.7,57.19,46.51,71.1C121.22,338.14,146.7,335.41,171.84,320.28ZM207.65,254c-.75-5.58-1.07-11.1-2.28-16.41C197.51,203.15,171,179.48,136,175.12c-3.87-.48-5.3.8-6.07,4.36-4.14,19-2,37.2,7.11,54.24C150,258,170.55,271.79,197.69,276c4.85.75,7.45-.49,7.87-5.75C206,264.81,206.93,259.41,207.65,254Z"/></svg>